<?xml version="1.0" encoding="UTF-8"?>
<svg version="1.1" xmlns="http://www.w3.org/2000/svg" width="512" height="512">
    <path d="M0 0 C0.87447564 -0.00623996 1.74895128 -0.01247993 2.64992619 -0.01890898 C5.5858192 -0.03488846 8.52088766 -0.02221535 11.45678711 -0.00964355 C13.55923956 -0.01506247 15.66168821 -0.02218382 17.76412964 -0.03088379 C23.4789495 -0.04914743 29.1934811 -0.04203696 34.90830612 -0.02936745 C40.88288919 -0.01925558 46.85744723 -0.02862808 52.83203125 -0.03491211 C62.86617474 -0.04219379 72.90020054 -0.03258709 82.93432617 -0.0135498 C94.54283485 0.00821985 106.15106253 0.00116885 117.7595644 -0.02085543 C127.71803604 -0.03899453 137.67642299 -0.04157502 147.63490582 -0.03110075 C153.58633214 -0.02485765 159.5376263 -0.02405267 165.48904419 -0.0372467 C171.08365183 -0.04878285 176.67789642 -0.04082018 182.27246475 -0.01766968 C184.32840496 -0.01237065 186.38437561 -0.01391666 188.4403038 -0.02272034 C191.24170532 -0.0336122 194.04193534 -0.01998932 196.84326172 0 C198.07068635 -0.01338433 198.07068635 -0.01338433 199.32290745 -0.02703905 C202.94252858 0.0232393 204.99591785 0.18140868 207.91169739 2.41783905 C211.4290289 7.28663557 210.64014435 13.17159592 210.67163086 18.94543457 C210.70256836 20.3579248 210.70256836 20.3579248 210.73413086 21.7989502 C210.78511793 30.83003458 210.78511793 30.83003458 207.42163086 34.50793457 C205.77163086 35.16793457 204.12163086 35.82793457 202.42163086 36.50793457 C202.42163086 42.77793457 202.42163086 49.04793457 202.42163086 55.50793457 C204.07163086 55.83793457 205.72163086 56.16793457 207.42163086 56.50793457 C210.56956765 61.00131556 210.83066875 65.21168894 210.71459961 70.53137207 C210.71157837 71.1937085 210.70855713 71.85604492 210.70544434 72.53845215 C210.68987762 74.98677396 210.64799446 77.43487173 210.60913086 79.88293457 C210.54725586 85.36918457 210.48538086 90.85543457 210.42163086 96.50793457 C232.20163086 96.50793457 253.98163086 96.50793457 276.42163086 96.50793457 C276.39842773 90.21344238 276.37522461 83.9189502 276.35131836 77.43371582 C276.34109933 73.44608149 276.33147138 69.4584633 276.32397461 65.4708252 C276.31201898 59.14144538 276.29787506 52.81212344 276.27075195 46.48278809 C276.24902166 41.37996473 276.2370618 36.27720344 276.23187637 31.17433739 C276.22818097 29.22749034 276.2209648 27.28064669 276.21017075 25.33382607 C276.19565345 22.60703821 276.19365303 19.88050681 276.19458008 17.15368652 C276.18738953 16.34879791 276.18019897 15.5439093 276.17279053 14.71463013 C276.19126288 9.6934996 276.73281027 6.11054304 279.46633053 1.89796829 C282.63105736 -0.35185336 286.13586692 0.09285438 289.87974548 0.12025452 C291.19017731 0.11217621 291.19017731 0.11217621 292.5270825 0.10393471 C295.46595057 0.08958229 298.40437283 0.09677675 301.34326172 0.10388184 C303.44556543 0.09818207 305.54786604 0.09121935 307.65016174 0.08308411 C313.36912292 0.065094 319.08793117 0.06633208 324.80691218 0.07202649 C329.57604191 0.07510992 334.3451419 0.06903533 339.11426741 0.06298774 C350.36249885 0.04892488 361.61065437 0.05051843 372.85888672 0.06188965 C384.47475016 0.07337281 396.09038278 0.05929575 407.7062158 0.03249317 C417.66890561 0.01036323 427.63152282 0.00369269 437.59423548 0.00956959 C443.54903949 0.01294682 449.50369551 0.01047331 455.45847893 -0.00668144 C461.05716197 -0.02210537 466.6555021 -0.01824562 472.25417137 0.0006237 C474.31172875 0.00432222 476.36931127 0.00116459 478.42684555 -0.00926208 C481.23047447 -0.0223874 484.03295397 -0.01099991 486.83653259 0.00672913 C487.6554978 -0.00287588 488.47446301 -0.01248089 489.31824535 -0.02237695 C492.75731645 0.02253231 495.01240645 0.24183904 497.92603302 2.13640594 C499.8865041 5.24507137 499.92737526 7.28357294 499.93629456 10.95359802 C499.94324008 11.59868917 499.95018561 12.24378031 499.95734161 12.90841967 C499.97562564 15.06816459 499.96534457 17.22681274 499.95507812 19.38659668 C499.96213599 20.93571292 499.97088044 22.48482225 499.98118591 24.03392029 C500.00370547 28.24060936 500.00073422 32.44692266 499.99186444 36.65364909 C499.98675743 40.16517335 499.99404481 43.67662682 500.00133651 47.18814379 C500.01834383 55.47213102 500.01476154 63.75593409 499.99804688 72.03991699 C499.98112481 80.58677799 499.99695917 89.13312828 500.02926975 97.67993349 C500.0559588 105.01764962 500.06324353 112.35520672 500.05475467 119.69296652 C500.04982339 124.0756228 500.05205173 128.45797177 500.07254219 132.84058952 C500.09088869 136.96203173 500.08495394 141.08273899 500.06034279 145.20414162 C500.05533149 146.71623238 500.05883306 148.22837903 500.07149124 149.74042511 C500.08741631 151.80622465 500.07248251 153.86960222 500.04981995 155.93528748 C500.04923364 157.09062957 500.04864733 158.24597166 500.04804325 159.43632412 C499.22698998 163.46235527 497.58935702 164.97576839 494.42163086 167.50793457 C491.48779297 167.89819336 491.48779297 167.89819336 488.19897461 167.5802002 C486.95619751 167.48191422 485.71342041 167.38362823 484.4329834 167.28236389 C483.77087357 167.22085207 483.10876373 167.15934025 482.42658997 167.09596443 C478.8474744 166.78127326 475.26158633 166.60434102 471.67358398 166.42370605 C470.92179619 166.38571113 470.17000839 166.3477162 469.39543915 166.30856991 C439.75740855 164.38516384 439.75740855 164.38516384 413.82788086 176.72277832 C405.06679567 184.73490692 397.53141899 194.07502105 390.84973145 203.86949158 C388.7475254 206.28132783 386.61077659 207.41735511 383.42163086 207.66027832 C382.43163086 207.55393066 382.43163086 207.55393066 381.42163086 207.44543457 C380.76163086 207.39258301 380.10163086 207.33973145 379.42163086 207.28527832 C376.30795398 206.07507969 375.21892039 204.2962745 373.42163086 201.50793457 C373.07874696 198.72264808 372.95133351 196.35263279 373.03100586 193.58215332 C373.03666565 192.83456253 373.04232544 192.08697174 373.04815674 191.31672668 C373.07044618 188.94229546 373.1206243 186.56940519 373.17163086 184.19543457 C373.19170567 182.58022208 373.20995472 180.9649858 373.22631836 179.34973145 C373.26687643 175.40140288 373.3451682 171.45638152 373.42163086 167.50793457 C367.81163086 167.50793457 362.20163086 167.50793457 356.42163086 167.50793457 C356.45256836 169.98293457 356.45256836 169.98293457 356.48413086 172.50793457 C356.47803096 177.64405229 356.32717274 182.75574883 356.04663086 187.88293457 C355.97702148 189.19004395 355.90741211 190.49715332 355.83569336 191.84387207 C355.32783136 196.33797169 354.80770535 200.16657216 351.48413086 203.38293457 C349.42163086 204.50793457 349.42163086 204.50793457 346.42163086 204.50793457 C346.43323242 205.47215332 346.44483398 206.43637207 346.45678711 207.42980957 C346.47032227 209.32473145 346.47032227 209.32473145 346.48413086 211.25793457 C346.49573242 212.51090332 346.50733398 213.76387207 346.51928711 215.05480957 C346.44184113 217.79329958 346.24943901 219.9267375 345.42163086 222.50793457 C346.20538086 222.77605957 346.98913086 223.04418457 347.79663086 223.32043457 C350.42163086 224.50793457 350.42163086 224.50793457 352.42163086 227.50793457 C352.65209961 230.87121582 352.65209961 230.87121582 352.60913086 234.82043457 C352.60268555 236.11594238 352.59624023 237.4114502 352.58959961 238.74621582 C352.44017531 242.09262504 352.05804639 245.22403042 351.42163086 248.50793457 C352.67266602 248.54660645 352.67266602 248.54660645 353.94897461 248.58605957 C364.42864025 249.11424432 371.84573644 251.23729583 379.62866211 258.44543457 C385.60635076 265.32173001 387.81933563 273.48688013 387.69897461 282.43371582 C386.74577363 292.99947882 383.84545382 302.98258252 377.42163086 311.50793457 C376.83510742 312.28652832 376.24858398 313.06512207 375.64428711 313.86730957 C368.58933548 322.46598273 359.06225476 328.31177702 348.42163086 331.50793457 C347.43163086 331.50793457 346.44163086 331.50793457 345.42163086 331.50793457 C345.35975586 332.51855957 345.29788086 333.52918457 345.23413086 334.57043457 C342.24664745 357.77458649 327.25583935 379.68088902 309.92163086 394.69543457 C307.42163086 396.50793457 307.42163086 396.50793457 305.42163086 396.50793457 C305.08649974 417.47296247 305.08649974 417.47296247 314.42163086 435.50793457 C314.42163086 436.16793457 314.42163086 436.82793457 314.42163086 437.50793457 C314.99267548 437.78899048 315.56372009 438.07004639 316.15206909 438.35961914 C317.60727984 439.09590267 319.04936856 439.85908437 320.47268677 440.65527344 C327.14395719 444.27033712 334.00534553 446.24446042 341.33507919 448.03208923 C343.46754213 448.55229015 345.59591758 449.0870552 347.72390747 449.62524414 C352.24495371 450.76579109 356.7705653 451.88750321 361.29663086 453.00793457 C366.54314811 454.30893094 371.78750951 455.61796118 377.02847672 456.94114685 C379.10239139 457.46127886 381.17888342 457.96991313 383.25582886 458.4777832 C400.3049254 462.72036378 413.72180245 469.34441648 426.42163086 481.50793457 C427.38069336 482.37225098 427.38069336 482.37225098 428.35913086 483.25402832 C434.69167481 489.14838285 440.72541571 496.65256644 441.42163086 505.50793457 C440.04769356 508.38666034 438.67173649 510.25782894 436.42163086 512.50793457 C433.70279324 512.76093423 433.70279324 512.76093423 430.1584034 512.76520348 C429.50558185 512.76870955 428.85276031 512.77221563 428.18015629 512.77582794 C425.97134983 512.78520377 423.76280347 512.78020292 421.5539856 512.77536011 C419.96293511 512.77909327 418.37188646 512.78369344 416.78084075 512.78909075 C412.39205356 512.80137757 408.00334226 512.80105364 403.61454177 512.798702 C398.88779115 512.79829526 394.16106534 512.80931927 389.43432617 512.81881714 C380.16748208 512.83545923 370.90066343 512.84092813 361.63380565 512.84204189 C354.10432534 512.84299086 346.57485346 512.84709352 339.04537582 512.85344315 C317.71716454 512.87106433 296.38897341 512.88028065 275.06075479 512.8787822 C273.9099562 512.87870229 272.75915761 512.87862237 271.57348633 512.87854004 C270.42128927 512.87845828 269.26909221 512.87837652 268.08198009 512.87829228 C249.40297994 512.87747913 230.72406038 512.89662168 212.04508354 512.92481677 C192.88450488 512.95351154 173.72396557 512.96735895 154.56336486 512.96562922 C143.79855758 512.96496414 133.03383477 512.97050806 122.26904678 512.99198532 C113.10435051 513.01015237 103.939777 513.01458144 94.77507056 513.00096647 C90.09610949 512.9944141 85.41738425 512.99440095 80.73844528 513.01167297 C76.45875922 513.02730915 72.1794978 513.02463783 67.8998227 513.00710471 C66.34800277 513.0040138 64.7961519 513.00774512 63.24436845 513.01882486 C61.14123848 513.03285179 59.03961762 513.02243688 56.9365406 513.00571251 C55.76656725 513.00614725 54.5965939 513.00658198 53.39116681 513.00702989 C49.78971173 512.40172677 48.64105906 511.34828243 46.42163086 508.50793457 C45.06850031 505.17021255 45.35679164 503.70626629 46.48413086 500.25793457 C47.10029007 498.99304386 47.74877057 497.74359622 48.42163086 496.50793457 C48.77870117 495.8505127 49.13577148 495.19309082 49.50366211 494.51574707 C61.37838482 474.92783589 81.02699215 464.33801217 102.60913086 458.75793457 C104.29425781 458.30354004 104.29425781 458.30354004 106.01342773 457.83996582 C121.10069694 453.85331218 121.10069694 453.85331218 125.85913086 455.19543457 C127.81709317 456.84012291 127.90812342 458.06004957 128.42163086 460.50793457 C131.37107729 459.8555086 134.30067627 459.16369462 137.23413086 458.44543457 C138.06750977 458.26561035 138.90088867 458.08578613 139.75952148 457.9005127 C142.16894781 457.29089881 144.23351096 456.69148447 146.42163086 455.50793457 C148.30389995 452.04574179 148.30389995 452.04574179 149.42163086 448.50793457 C151.33178711 447.12512207 151.33178711 447.12512207 153.48413086 446.38293457 C157.01473435 445.04453586 160.36622403 443.59678065 163.73413086 441.88293457 C164.53463867 441.47816895 165.33514648 441.07340332 166.15991211 440.65637207 C166.9062793 440.2773877 167.65264648 439.89840332 168.42163086 439.50793457 C169.13706055 439.2114502 169.85249023 438.91496582 170.58959961 438.60949707 C172.92625314 437.20451563 173.38257301 436.00524098 174.42163086 433.50793457 C175.04231445 432.30137207 175.04231445 432.30137207 175.67553711 431.07043457 C176.10737305 430.22480957 176.53920898 429.37918457 176.98413086 428.50793457 C177.41854492 427.66230957 177.85295898 426.81668457 178.30053711 425.94543457 C180.12726413 421.97373541 180.56868928 418.44071801 180.73803711 414.08605957 C180.77993164 413.06125488 180.82182617 412.0364502 180.86499023 410.98059082 C180.90430664 409.91711426 180.94362305 408.8536377 180.98413086 407.75793457 C181.02731445 406.67898926 181.07049805 405.60004395 181.11499023 404.48840332 C181.22092075 401.82837029 181.32299507 399.16824645 181.42163086 396.50793457 C180.81730225 396.22289062 180.21297363 395.93784668 179.59033203 395.64416504 C161.03515119 385.92269575 149.43353038 362.58938849 143.42163086 343.50793457 C142.25063968 339.4380148 141.42163086 335.78304892 141.42163086 331.50793457 C139.53444336 331.19855957 139.53444336 331.19855957 137.60913086 330.88293457 C125.12487904 328.04560461 114.63913773 319.66820003 107.54663086 309.19543457 C101.11464614 298.39455457 97.64898974 285.4527517 99.88256836 272.92199707 C102.22555059 263.96353559 107.2635565 257.12499299 115.27709961 252.41809082 C121.7973288 249.08077861 128.2012676 248.79119942 135.42163086 248.50793457 C135.23334717 246.65168457 135.23334717 246.65168457 135.04125977 244.75793457 C133.77616104 232.03757141 132.79008801 219.31487325 131.98901367 206.55725098 C131.79498437 203.48183722 131.59293713 200.40701597 131.39038086 197.33215332 C130.74822015 187.36754914 130.25207209 177.49648755 130.42163086 167.50793457 C124.81163086 167.50793457 119.20163086 167.50793457 113.42163086 167.50793457 C113.46803711 169.90430176 113.51444336 172.30066895 113.56225586 174.76965332 C113.59348221 177.09962854 113.61775228 179.42958013 113.64135742 181.75964355 C113.66142978 183.37465915 113.68869416 184.98960246 113.72338867 186.60437012 C113.77210301 188.93047958 113.7946424 191.2556255 113.81225586 193.58215332 C113.832901 194.30005539 113.85354614 195.01795746 113.87481689 195.75761414 C113.87643706 199.40593956 113.51951343 201.35665466 111.51782227 204.45031738 C109.37835915 206.55040999 108.47272198 207.2472719 105.54663086 207.57043457 C104.90983398 207.66453613 104.27303711 207.7586377 103.61694336 207.85559082 C99.59899347 207.21929627 96.55300984 204.86925983 94.00216675 201.79997253 C93.03722763 200.45632325 92.08454372 199.1038188 91.14190674 197.74443054 C82.73599122 185.72137316 71.54079398 170.8093694 56.46582031 167.51043701 C42.91527249 165.15879198 28.94068283 165.87486454 15.27075195 166.52478027 C14.53049019 166.55962052 13.79022842 166.59446077 13.02753448 166.63035679 C9.4982228 166.80593013 5.98165795 167.02511312 2.46136475 167.33345032 C1.21220276 167.42535141 -0.03695923 167.5172525 -1.32397461 167.61193848 C-2.41531708 167.71084381 -3.50665955 167.80974915 -4.631073 167.91165161 C-8.75036904 167.34739545 -9.98219181 165.6889295 -12.57836914 162.50793457 C-13.20478153 159.43632412 -13.20478153 159.43632412 -13.20655823 155.93528748 C-13.21365261 155.28863634 -13.220747 154.64198521 -13.22805637 153.97573858 C-13.24560981 151.8165073 -13.22754856 149.65908269 -13.20947266 147.49987793 C-13.21461253 145.94899172 -13.22189432 144.39811134 -13.2311554 142.84724426 C-13.24966782 138.64057426 -13.23673281 134.43453815 -13.2170651 130.22789454 C-13.20067873 125.82551127 -13.20949133 121.42316814 -13.21458435 117.02076721 C-13.21910486 109.62893547 -13.20323705 102.23735683 -13.17529297 94.84558105 C-13.14322933 86.29815885 -13.14326147 77.7511928 -13.16050774 69.20373815 C-13.17636682 60.98160322 -13.16964405 52.75963562 -13.15257072 44.53750801 C-13.14569596 41.03795483 -13.14673696 37.53853561 -13.15411568 34.0389843 C-13.16177236 29.91922889 -13.1496731 25.79999321 -13.12226677 21.68032646 C-13.11537573 20.16782677 -13.1152927 18.6552786 -13.1224823 17.1427803 C-13.13116203 15.0791381 -13.11525008 13.0171055 -13.09303284 10.95359802 C-13.09022592 9.79863296 -13.08741899 8.64366789 -13.08452702 7.45370388 C-12.57836914 4.50793457 -12.57836914 4.50793457 -11.08235073 2.13682652 C-7.49531151 -0.19661688 -4.1407062 -0.04515192 0 0 Z "
          fill="#010101" transform="translate(12.578369140625,-0.5079345703125)"/>
    <path d="M0 0 C0.02187378 1.01646606 0.02187378 1.01646606 0.04418945 2.0534668 C0.88614486 37.34121638 5.83291921 71.83291921 32 98 C32.5109523 110.04896813 32.01477071 122.10155285 31.1875 134.125 C31.11748779 135.22505371 31.04747559 136.32510742 30.9753418 137.45849609 C29.09582389 162.30261219 18.57424524 184.17451655 0.5625 201.3203125 C-18.69098051 217.47043595 -43.04919372 225.04220127 -68 223 C-92.30475063 219.6488518 -114.31873857 206.79950833 -129.24267578 187.41064453 C-133.70699438 181.32625039 -136.98890129 174.91315266 -140 168 C-140.39832031 167.14664063 -140.79664063 166.29328125 -141.20703125 165.4140625 C-147.38150945 150.75256744 -147.52093536 133.16161799 -147.90625 117.47509766 C-147.99700636 115.07903533 -148.18714452 112.71155557 -148.40625 110.32421875 C-148.8355826 104.61772509 -149.13884929 99.89885688 -146.0859375 94.80859375 C-143.92764101 92.29949056 -141.68459741 89.92289764 -139.38134766 87.54833984 C-131.52787508 78.74545488 -126.88831535 66.95797963 -123 56 C-122.74524902 55.31236572 -122.49049805 54.62473145 -122.22802734 53.91625977 C-120.20061761 48.23037101 -119.15230761 42.66305222 -118.375 36.6875 C-118.25382812 35.82705078 -118.13265625 34.96660156 -118.0078125 34.08007812 C-117.09600837 27.40507726 -116.50886987 20.71664486 -116 14 C-114.76999268 13.84442627 -113.53998535 13.68885254 -112.27270508 13.52856445 C-91.19309651 10.86014202 -70.11573047 8.18260378 -49.0625 5.3125 C-28.1082962 2.46262072 -28.1082962 2.46262072 -18.1875 1.1875 C-17.25107666 1.0635083 -16.31465332 0.9395166 -15.34985352 0.81176758 C-10.18593076 0.15863652 -5.20538487 -0.11486912 0 0 Z "
          fill="#FEF2DD" transform="translate(314,179)"/>
    <path d="M0 0 C63.36 0 126.72 0 192 0 C192 45.21 192 90.42 192 137 C170.55 137.33 149.1 137.66 127 138 C111.57977627 149.56832932 111.57977627 149.56832932 100.76586914 163.44555664 C100.18313232 164.28852295 99.60039551 165.13148926 99 166 C98.34 166 97.68 166 97 166 C96.99589111 165.3294458 96.99178223 164.6588916 96.98754883 163.96801758 C96.95455357 160.91529609 96.8839038 157.8645547 96.8125 154.8125 C96.80669922 153.75740234 96.80089844 152.70230469 96.79492188 151.61523438 C96.75141602 150.08286133 96.75141602 150.08286133 96.70703125 148.51953125 C96.6913208 147.58214111 96.67561035 146.64475098 96.65942383 145.67895508 C95.71788934 141.85390586 94.11728597 140.35630922 91 138 C87.72288 137.36914641 87.72288 137.36914641 84.16015625 137.609375 C82.1946582 137.62677734 82.1946582 137.62677734 80.18945312 137.64453125 C78.12366708 137.69019212 76.06005523 137.75009644 73.99536133 137.83154297 C62.35432678 138.23396281 62.35432678 138.23396281 58.86279297 135.05273438 C57.30859375 132.640625 57.30859375 132.640625 56.17358398 130.23535156 C54.07504451 126.23821667 51.47214373 125.14951218 47.25 123.8125 C45.64125 123.4103125 45.64125 123.4103125 44 123 C43.92523438 122.09378906 43.85046875 121.18757813 43.7734375 120.25390625 C42.69221562 110.23670351 40.2428567 103.87948421 33 96.875 C23.69158213 89.44895108 11.60860296 84.93476716 0 83 C0 55.61 0 28.22 0 0 Z "
          fill="#45CB8C" transform="translate(305,15)"/>
    <path d="M0 0 C63.36 0 126.72 0 192 0 C192.33 4.95 192.66 9.9 193 15 C195.60385848 19.3476344 195.60385848 19.3476344 200 20 C200 26.93 200 33.86 200 41 C197.03 41.99 197.03 41.99 194 43 C192.39048457 46.21903085 192.75765252 49.74838832 192.68359375 53.2890625 C192.6524221 54.51669815 192.6524221 54.51669815 192.62062073 55.76913452 C192.55515188 58.38766966 192.49625274 61.00630639 192.4375 63.625 C192.39431224 65.39844807 192.35069786 67.17188581 192.30664062 68.9453125 C192.19947324 73.29677046 192.09819831 77.64833077 192 82 C191.23969482 82.0093457 190.47938965 82.01869141 189.69604492 82.02832031 C186.19258167 82.08258396 182.69037448 82.16612065 179.1875 82.25 C177.99189453 82.26417969 176.79628906 82.27835937 175.56445312 82.29296875 C162.22689142 82.65639005 151.02020017 86.87264361 140.96484375 95.80859375 C132.25872148 105.01220872 127.92319684 116.95460103 127.375 129.4375 C127.33632812 130.16904297 127.29765625 130.90058594 127.2578125 131.65429688 C127.16466016 133.43583532 127.08129714 135.21788122 127 137 C126.23856689 137.00410889 125.47713379 137.00821777 124.69262695 137.01245117 C121.23180334 137.0454114 117.77273429 137.11606054 114.3125 137.1875 C112.51522461 137.19620117 112.51522461 137.19620117 110.68164062 137.20507812 C103.91439607 137.36669327 103.91439607 137.36669327 97.71875 139.8125 C95.08721596 144.69279949 95.21754306 149.34800043 95.1875 154.8125 C95.16236328 155.88693359 95.13722656 156.96136719 95.11132812 158.06835938 C95.05256705 160.71260771 95.01620624 163.35520488 95 166 C90.91709903 164.38448553 88.21566164 161.45360304 85.2109375 158.37109375 C84.66643951 157.8213942 84.12194153 157.27169464 83.5609436 156.70533752 C81.82746221 154.95408824 80.10083449 153.19628312 78.375 151.4375 C76.64115848 149.67604189 74.90587817 147.91606377 73.16763306 146.15895081 C72.08752633 145.06658495 71.01010397 143.97155704 69.93563843 142.87364197 C53.50405668 126.22191104 23.39109748 137.3654859 0 137 C0 91.79 0 46.58 0 0 Z "
          fill="#FCB340" transform="translate(15,15)"/>
    <path d="M0 0 C1.00633987 -0.00571014 2.01267975 -0.01142029 3.04951477 -0.01730347 C4.70457283 -0.01898026 4.70457283 -0.01898026 6.39306641 -0.02069092 C7.5560173 -0.02565582 8.7189682 -0.03062073 9.91716003 -0.03573608 C13.7763223 -0.05037596 17.6354434 -0.05716433 21.49462891 -0.06268311 C23.49892209 -0.06698122 25.50321527 -0.07127987 27.50750828 -0.07565761 C33.09753916 -0.08747245 38.6875601 -0.09500661 44.2776022 -0.09845281 C51.48650955 -0.1029221 58.69522621 -0.12041566 65.90407562 -0.1494534 C71.48728058 -0.17115471 77.07043226 -0.18116172 82.65367889 -0.18249393 C85.98242835 -0.18353677 89.31085698 -0.19080183 92.6395874 -0.20731354 C96.36354786 -0.22446037 100.08705072 -0.2224719 103.81103516 -0.21600342 C104.89821335 -0.2252182 105.98539154 -0.23443298 107.10551453 -0.243927 C116.98650795 -0.19044382 125.67147195 2.06155371 134.49462891 6.45294189 C135.63673828 7.00594971 136.77884766 7.55895752 137.95556641 8.12872314 C142.06250231 10.73992314 144.91331967 13.72782342 147.11962891 18.14044189 C148.3365485 28.87327376 143.93160062 35.31606637 137.74462891 43.51544189 C137.28660889 44.13515869 136.82858887 44.75487549 136.35668945 45.39337158 C135.8994751 45.97763916 135.44226074 46.56190674 134.97119141 47.16387939 C134.56723145 47.68901123 134.16327148 48.21414307 133.74707031 48.75518799 C129.17501424 52.64685408 122.3776014 52.80601803 116.63916016 53.54278564 C115.72228928 53.66497467 114.8054184 53.7871637 113.86076355 53.91305542 C110.88533033 54.30754278 107.90881666 54.69304489 104.93212891 55.07794189 C102.86764866 55.34913849 100.80319565 55.62054256 98.73876953 55.89215088 C87.19187885 57.40222884 75.64230113 58.80639133 64.06079102 60.02471924 C52.8076588 61.23075782 41.60254401 62.78652867 30.39306641 64.33990479 C29.65123108 64.44209824 28.90939575 64.54429169 28.14508057 64.64958191 C26.67281742 64.8532851 25.20092486 65.05968617 23.72943115 65.26887512 C19.94429928 65.79741412 16.17152712 66.24078701 12.36279297 66.56182861 C11.58960724 66.63296371 10.81642151 66.70409882 10.01980591 66.77738953 C8.55011402 66.90890556 7.07863775 67.02224929 5.60592651 67.1139679 C2.10338411 67.43951122 0.33126425 67.95327148 -2.328125 70.30523682 C-4.18076349 73.68911395 -4.36440382 75.81863678 -4.34912109 79.66387939 C-4.36023926 80.92506592 -4.37135742 82.18625244 -4.3828125 83.48565674 C-4.38162415 84.1444281 -4.38043579 84.80319946 -4.37921143 85.48193359 C-4.38568664 96.83638591 -4.68427865 107.43535063 -8.88037109 118.14044189 C-9.26418945 119.12439941 -9.26418945 119.12439941 -9.65576172 120.12823486 C-12.96222738 128.46215446 -16.63698034 136.82080916 -21.88037109 144.14044189 C-22.21037109 144.14044189 -22.54037109 144.14044189 -22.88037109 144.14044189 C-24.65784084 130.31777824 -25.41590851 116.47112844 -26.12768555 102.56280518 C-26.21055391 100.94414986 -26.29348039 99.32549751 -26.37646484 97.70684814 C-26.41751846 96.9049707 -26.45857208 96.10309326 -26.50086975 95.2769165 C-26.91493984 87.28943938 -27.41823262 79.30882075 -27.94287109 71.32794189 C-28.02649902 70.04556641 -28.11012695 68.76319092 -28.19628906 67.44195557 C-28.52900137 62.36926447 -28.86675596 57.29711981 -29.22802734 52.22637939 C-29.48880243 48.53292632 -29.69401951 44.83848547 -29.88037109 41.14044189 C-29.92500488 40.48092529 -29.96963867 39.82140869 -30.015625 39.14190674 C-30.74089547 27.88834638 -29.15049143 19.73351425 -21.98193359 10.76544189 C-16.04876788 4.38670247 -8.85690386 0.03010169 0 0 Z "
          fill="#00808A" transform="translate(186.88037109375,111.85955810546875)"/>
    <path d="M0 0 C0.495 0.845625 0.99 1.69125 1.5 2.5625 C3.6849643 5.20106838 3.6849643 5.20106838 6.203125 5.21484375 C10.52501939 4.85026677 14.35137512 3.9874639 18.375 2.375 C22.8240488 0.68742976 22.8240488 0.68742976 26 2 C27.88313782 3.48041858 29.71046683 5.03270032 31.5 6.625 C53.33844452 25.36086085 79.11957032 29.2683599 107 28 C126.40493772 26.37210857 146.54757728 17.92051145 160.6003418 4.46801758 C162.125 3.0625 162.125 3.0625 165 1 C168.28997076 1.3921194 171.36564981 2.3707609 174.51879883 3.3659668 C180.52343716 5.19694063 186.5985488 6.67157577 192.69921875 8.14453125 C195.15051395 8.74493943 197.6016819 9.34586734 200.05273438 9.94726562 C203.86459275 10.88022769 207.67710846 11.80999197 211.49194336 12.73071289 C255.72535005 23.42472377 255.72535005 23.42472377 271 41 C271 41.33 271 41.66 271 42 C154.84 42 38.68 42 -81 42 C-68.02349973 26.86074969 -53.85315159 20.75614741 -34.63671875 16.203125 C-33.58097656 15.95046875 -32.52523437 15.6978125 -31.4375 15.4375 C-30.50808594 15.22996094 -29.57867187 15.02242188 -28.62109375 14.80859375 C-25.61116397 13.88004611 -23.46585036 12.98048087 -21 11 C-20.10792821 7.9042893 -20.10792821 7.9042893 -20 5 C-17.04283593 4.16247839 -14.084087 3.33069969 -11.125 2.5 C-10.28324219 2.26152344 -9.44148438 2.02304687 -8.57421875 1.77734375 C-7.76855469 1.55175781 -6.96289062 1.32617188 -6.1328125 1.09375 C-5.38918457 0.88427734 -4.64555664 0.67480469 -3.87939453 0.45898438 C-2 0 -2 0 0 0 Z "
          fill="#E74343" transform="translate(161,455)"/>
    <path d="M0 0 C10.89 0 21.78 0 33 0 C33 45.21 33 90.42 33 137 C11.55 137.33 -9.9 137.66 -32 138 C-47.42022373 149.56832932 -47.42022373 149.56832932 -58.23413086 163.44555664 C-58.81686768 164.28852295 -59.39960449 165.13148926 -60 166 C-60.66 166 -61.32 166 -62 166 C-62.00410889 165.3294458 -62.00821777 164.6588916 -62.01245117 163.96801758 C-62.04544643 160.91529609 -62.1160962 157.8645547 -62.1875 154.8125 C-62.19330078 153.75740234 -62.19910156 152.70230469 -62.20507812 151.61523438 C-62.23408203 150.59365234 -62.26308594 149.57207031 -62.29296875 148.51953125 C-62.31653442 147.11344604 -62.31653442 147.11344604 -62.34057617 145.67895508 C-63.28211066 141.85390586 -64.88271403 140.35630922 -68 138 C-71.27712 137.36914641 -71.27712 137.36914641 -74.83984375 137.609375 C-76.8053418 137.62677734 -76.8053418 137.62677734 -78.81054688 137.64453125 C-80.87633292 137.69019212 -82.93994477 137.75009644 -85.00463867 137.83154297 C-96.62169876 138.23313403 -96.62169876 138.23313403 -100.13720703 135.08789062 C-101.69140625 132.703125 -101.69140625 132.703125 -102.82641602 130.33300781 C-104.16738878 127.66724211 -105.86246482 126.05713954 -108 124 C-106.78423027 123.99453156 -106.78423027 123.99453156 -105.54389954 123.98895264 C-97.85114429 123.95085719 -90.15886188 123.89376427 -82.46641254 123.81609726 C-78.51299353 123.77683093 -74.5597903 123.74454167 -70.60620117 123.72900391 C-66.78037998 123.71369809 -62.9551529 123.67901238 -59.12959862 123.63169098 C-57.68065791 123.61701892 -56.23163231 123.60896727 -54.78261757 123.60811615 C-39.52469879 123.59016482 -26.31453556 120.40895571 -14.75 109.96875 C-5.6642696 100.47003186 -0.71830551 88.57073912 -0.68115234 75.49438477 C-0.67110672 74.67406265 -0.6610611 73.85374054 -0.65071106 73.00856018 C-0.62002505 70.31951546 -0.60288478 67.63056963 -0.5859375 64.94140625 C-0.5672141 63.06810158 -0.54763982 61.19480524 -0.5272522 59.32151794 C-0.4760488 54.4077751 -0.43636011 49.49400494 -0.39910889 44.58013916 C-0.35899513 39.55921743 -0.30793649 34.53840814 -0.2578125 29.51757812 C-0.16119284 19.67845677 -0.07775595 9.83928853 0 0 Z "
          fill="#00C179" transform="translate(464,15)"/>
    <path d="M0 0 C0.94065811 -0.01134979 1.88131622 -0.02269958 2.85047913 -0.03439331 C4.38804871 -0.02999741 4.38804871 -0.02999741 5.9566803 -0.0255127 C7.04163284 -0.03398224 8.12658539 -0.04245178 9.24441528 -0.05117798 C12.83490178 -0.07459881 16.42496104 -0.07556891 20.01551819 -0.07434082 C22.50889254 -0.08143917 25.00226526 -0.08913768 27.49563599 -0.09741211 C32.72357045 -0.11086851 37.95139463 -0.11260124 43.17933655 -0.10656738 C48.55030189 -0.10066031 53.92077431 -0.11475609 59.29164124 -0.14758301 C65.77375022 -0.18667234 72.25543519 -0.20138681 78.73765755 -0.1967926 C81.20923749 -0.19848776 83.68082519 -0.20816807 86.15234184 -0.22593689 C89.60714715 -0.24804148 93.06047433 -0.23846634 96.51527405 -0.2208252 C98.04980728 -0.24072006 98.04980728 -0.24072006 99.61534119 -0.26101685 C104.31770988 -0.20515129 106.58329452 -0.13027849 110.46694946 2.71020508 C112.30067444 5.39440918 112.30067444 5.39440918 112.42567444 8.95690918 C109.34475388 24.10476857 99.77536027 37.75853566 87.21083069 46.55847168 C71.12224668 56.39959866 54.193156 60.21487919 35.61317444 55.83190918 C23.57688594 52.20835285 14.10175272 46.30790999 5.30067444 37.39440918 C4.45762756 36.5842334 4.45762756 36.5842334 3.59754944 35.75769043 C-2.791437 29.08288091 -7.21842185 19.18810748 -9.69932556 10.39440918 C-9.48756479 4.1474664 -9.48756479 4.1474664 -6.93834591 1.7120285 C-4.37803133 0.20533386 -2.94938738 0.01348144 0 0 Z "
          fill="#040403" transform="translate(204.69932556152344,330.6055908203125)"/>
    <path d="M0 0 C1.7325 0.5878125 1.7325 0.5878125 3.5 1.1875 C4.32242188 1.45820313 5.14484375 1.72890625 5.9921875 2.0078125 C8.21011487 2.73944049 10.42294762 3.48655628 12.6328125 4.2421875 C37.87119314 12.6926784 64.90005156 12.12694691 89.33203125 1.171875 C92 0 92 0 94 0 C94.02578125 1.08796875 94.0515625 2.1759375 94.078125 3.296875 C94.49854392 15.61416507 96.01658314 26.02568196 103.92578125 35.96484375 C105 38 105 38 104.9609375 40.51171875 C101.96747177 48.2630914 89.91606993 53.04609687 82.828125 56.390625 C61.21953774 65.70890927 35.63804585 66.31461026 13.625 57.6875 C4.56010518 53.57824457 -3.30685756 48.28087474 -11 42 C-10.43434429 38.10249419 -9.29536002 35.57883783 -7.125 32.3125 C-0.80740967 21.98013404 -0.39750651 11.81553828 0 0 Z "
          fill="#FBD0A2" transform="translate(209,406)"/>
    <path d="M0 0 C0.33 0 0.66 0 1 0 C1.114646 0.55034912 1.22929199 1.10069824 1.34741211 1.66772461 C5.84412279 22.64419998 14.61373042 42.61373042 30 58 C30.5109523 70.04896813 30.01477071 82.10155285 29.1875 94.125 C29.08248169 95.77508057 29.08248169 95.77508057 28.9753418 97.45849609 C27.09582389 122.30261219 16.57424524 144.17451655 -1.4375 161.3203125 C-20.69098051 177.47043595 -45.04919372 185.04220127 -70 183 C-82.40728319 181.28927911 -93.96311544 176.82502241 -105 171 C-105 170.67 -105 170.34 -105 170 C-104.18732666 169.9498877 -103.37465332 169.89977539 -102.53735352 169.84814453 C-98.87836527 169.61698433 -95.22050608 169.37119428 -91.5625 169.125 C-90.28310547 169.04636719 -89.00371094 168.96773437 -87.68554688 168.88671875 C-86.47060547 168.80292969 -85.25566406 168.71914063 -84.00390625 168.6328125 C-82.87799072 168.55949707 -81.7520752 168.48618164 -80.59204102 168.41064453 C-79.73666748 168.27513184 -78.88129395 168.13961914 -78 168 C-77.67 167.34 -77.34 166.68 -77 166 C-75.845 166.33 -74.69 166.66 -73.5 167 C-57.25419168 170.47761834 -40.71167364 167.16172518 -26.48828125 158.72265625 C-14.93359066 150.72325507 -7.19965349 140.96878556 -2 128 C-1.54625 126.9275 -1.0925 125.855 -0.625 124.75 C0.18539167 121.18427663 -0.11659815 118.53360742 -1 115 C-3.90092502 113.06604999 -4.89674737 112.69868059 -8.1875 112.375 C-9.445625 112.25125 -10.70375 112.1275 -12 112 C-11.823479 111.40050537 -11.64695801 110.80101074 -11.46508789 110.18334961 C-10.65924394 107.43616635 -9.86082421 104.68687744 -9.0625 101.9375 C-8.78470703 100.99455078 -8.50691406 100.05160156 -8.22070312 99.08007812 C-5.47136995 89.57334773 -4.68564032 80.34916693 -4.0625 70.5 C-3.93258712 68.49121435 -3.80267291 66.48242878 -3.67268372 64.47364807 C-3.53775423 62.38206383 -3.40409346 60.29040092 -3.27050781 58.19873047 C-3.00858414 54.11241356 -2.73553937 50.02688745 -2.4609375 45.94140625 C-1.43950238 30.63308367 -0.57740706 15.33167698 0 0 Z "
          fill="#FBE2BF" transform="translate(316,219)"/>
    <path d="M0 0 C10.56 0 21.12 0 32 0 C32.495 7.425 32.495 7.425 33 15 C35.60385848 19.3476344 35.60385848 19.3476344 40 20 C40 26.93 40 33.86 40 41 C38.02 41.66 36.04 42.32 34 43 C32.39048457 46.21903085 32.75765252 49.74838832 32.68359375 53.2890625 C32.66281265 54.10748627 32.64203156 54.92591003 32.62062073 55.76913452 C32.55515188 58.38766966 32.49625274 61.00630639 32.4375 63.625 C32.39431224 65.39844807 32.35069786 67.17188581 32.30664062 68.9453125 C32.19947324 73.29677046 32.09819831 77.64833077 32 82 C31.21351074 82.02505615 30.42702148 82.0501123 29.61669922 82.07592773 C26.03598506 82.19232866 22.4555055 82.31485487 18.875 82.4375 C17.6375 82.47681641 16.4 82.51613281 15.125 82.55664062 C13.92617187 82.59853516 12.72734375 82.64042969 11.4921875 82.68359375 C10.39245605 82.72025146 9.29272461 82.75690918 8.15966797 82.79467773 C4.50888175 82.97898296 4.50888175 82.97898296 -1 84 C-0.67 56.28 -0.34 28.56 0 0 Z "
          fill="#FCA613" transform="translate(175,15)"/>
    <path d="M0 0 C0 5.28 0 10.56 0 16 C-1.81886719 16.01417969 -3.63773437 16.02835938 -5.51171875 16.04296875 C-7.90367119 16.08986978 -10.29559751 16.13811715 -12.6875 16.1875 C-14.48477539 16.19620117 -14.48477539 16.19620117 -16.31835938 16.20507812 C-23.08560393 16.36669327 -23.08560393 16.36669327 -29.28125 18.8125 C-31.91278404 23.69279949 -31.78245694 28.34800043 -31.8125 33.8125 C-31.83763672 34.88693359 -31.86277344 35.96136719 -31.88867188 37.06835938 C-31.94743295 39.71260771 -31.98379376 42.35520488 -32 45 C-36.08290097 43.38448553 -38.78433836 40.45360304 -41.7890625 37.37109375 C-42.33356049 36.8213942 -42.87805847 36.27169464 -43.4390564 35.70533752 C-45.17253779 33.95408824 -46.89916551 32.19628312 -48.625 30.4375 C-50.35884152 28.67604189 -52.09412183 26.91606377 -53.83236694 25.15895081 C-54.91247367 24.06658495 -55.98989603 22.97155704 -57.06436157 21.87364197 C-61.30242004 17.57880229 -63.10869478 16.87693948 -69.10205078 16.79467773 C-70.38322784 16.77473251 -71.66440491 16.75478729 -72.98440552 16.73423767 C-74.38803994 16.71725331 -75.79167563 16.70037451 -77.1953125 16.68359375 C-78.62735597 16.6630246 -80.05939337 16.64202814 -81.49142456 16.62062073 C-85.26266563 16.56539597 -89.03396152 16.51598853 -92.80529785 16.46777344 C-96.65280036 16.41756133 -100.50022313 16.36187376 -104.34765625 16.30664062 C-111.8983719 16.1990541 -119.44915426 16.0981162 -127 16 C-127 11.71 -127 7.42 -127 3 C-125.5394519 2.99191315 -124.07890381 2.98382629 -122.57409668 2.97549438 C-108.80220052 2.89797173 -95.03039442 2.81033284 -81.25862885 2.71247292 C-74.17862594 2.66242183 -67.09863418 2.61597828 -60.01855469 2.578125 C-53.18445571 2.54157659 -46.35048638 2.49484579 -39.51649475 2.44193649 C-36.91067169 2.4234202 -34.30482217 2.40830207 -31.69895935 2.39665604 C-28.04592263 2.37974661 -24.39316718 2.35069934 -20.74023438 2.31884766 C-19.66560944 2.31668747 -18.5909845 2.31452728 -17.48379517 2.31230164 C-11.56530131 2.24648518 -5.65139085 0 0 0 Z "
          fill="#FBA513" transform="translate(142,136)"/>
    <path d="M0 0 C2.3125 0.0625 2.3125 0.0625 5 1 C8.03772299 6.48258848 8.37790453 10.93308968 8.1875 17.109375 C8.17614014 17.9580011 8.16478027 18.8066272 8.15307617 19.68096924 C8.11665822 22.37112879 8.06074635 25.06028674 8 27.75 C7.92028894 31.30726428 7.86034136 34.86405582 7.8125 38.421875 C7.77515747 39.64532623 7.77515747 39.64532623 7.73706055 40.89349365 C7.54719001 45.06987345 7.54719001 45.06987345 9.33081055 48.67559814 C11.07596557 50.21528699 11.07596557 50.21528699 14 51 C14.02712351 53.39591038 14.0468982 55.79150957 14.0625 58.1875 C14.07087891 58.86103516 14.07925781 59.53457031 14.08789062 60.22851562 C14.10606538 63.95434131 13.89299392 67.3788042 13 71 C12.030625 71.28875 11.06125 71.5775 10.0625 71.875 C6.89335797 72.64214682 6.89335797 72.64214682 6 75 C5.80170798 76.83698315 5.65514567 78.67968335 5.53515625 80.5234375 C5.41817383 82.17859375 5.41817383 82.17859375 5.29882812 83.8671875 C5.14181749 86.19769241 4.98814806 88.52842494 4.83789062 90.859375 C4.71897461 92.51839844 4.71897461 92.51839844 4.59765625 94.2109375 C4.53070557 95.22462402 4.46375488 96.23831055 4.39477539 97.28271484 C4.00879064 99.93949301 3.35048993 101.70180385 2 104 C-2.65236485 96.48371186 -6.66507727 88.93664696 -9.875 80.6875 C-10.16060791 79.95998535 -10.44621582 79.2324707 -10.74047852 78.48291016 C-15.52434961 65.79955536 -16.31733417 52.838942 -16.56982422 39.39892578 C-16.60653437 37.88601287 -16.66115987 36.37342612 -16.73388672 34.86181641 C-17.11864315 26.69682389 -17.16255197 20.40973275 -11.71484375 13.75390625 C-10.16040609 12.15241777 -8.58919184 10.56700706 -7 9 C-5.62150911 7.29016153 -4.26319194 5.56359269 -2.9375 3.8125 C-2.36902344 3.07644531 -1.80054688 2.34039062 -1.21484375 1.58203125 C-0.81394531 1.05996094 -0.41304688 0.53789062 0 0 Z "
          fill="#016771" transform="translate(345,152)"/>
    <path d="M0 0 C27.72 0 55.44 0 84 0 C81.78423168 8.8630733 74.2737975 15.80978479 66.6171875 20.44140625 C54.24803847 26.93617886 42.02875736 29.21680132 28.3125 25.4375 C16.55076928 21.36888669 6.20451024 13.91993803 0 3 C0 2.01 0 1.02 0 0 Z "
          fill="#E64343" transform="translate(214,346)"/>
    <path d="M0 0 C6.43852389 3.9697217 11.38246237 10.27545986 13.5 17.5 C14.92497404 25.83173596 12.28433 32.67357792 7.5 39.5 C5.2459795 41.39368389 2.9075209 42.99809518 0.47265625 44.6484375 C-2.64664877 47.57626043 -2.99384455 50.95422176 -3.83984375 55.02734375 C-4.5 57.5 -4.5 57.5 -6.8125 60.25 C-10.24563767 61.84680822 -11.92621027 61.66536622 -15.5 60.5 C-17.88335959 58.75483859 -18.43861063 57.84071098 -18.96875 54.8984375 C-19.04492442 47.52856202 -18.2282864 42.29058863 -13.5 36.5 C-10.95473884 33.99413917 -8.34578048 31.64283659 -5.609375 29.34765625 C-2.99377209 27.05658185 -2.58407632 26.13057236 -2.125 22.6875 C-2.26273055 19.35940634 -2.26273055 19.35940634 -4.5 16.625 C-7.84451104 14.25597134 -9.56465139 13.73623916 -13.5703125 14.0234375 C-17.06756536 14.88713153 -18.45968623 16.61955703 -20.5 19.5 C-21.13594155 21.51178211 -21.13594155 21.51178211 -21.5625 23.625 C-22.5 27.5 -22.5 27.5 -24.3125 29.5 C-27.110335 30.77901028 -28.46328214 31.1665966 -31.5 30.5 C-34.8987751 27.40333825 -36.25777821 25.75955329 -37.125 21.25 C-35.74364456 12.96186737 -31.88863419 7.16667688 -25.46484375 1.875 C-18.54111661 -2.97023251 -7.79677705 -3.46864491 0 0 Z "
          fill="#050301" transform="translate(122.5,43.5)"/>
    <path d="M0 0 C1.47811157 0.02199463 1.47811157 0.02199463 2.98608398 0.04443359 C4.10865601 0.0727124 4.10865601 0.0727124 5.25390625 0.1015625 C5.54398027 4.97187448 5.8285377 9.84246935 6.10839844 14.71337891 C6.20395732 16.36385391 6.30091815 18.01424845 6.39941406 19.66455078 C7.00482983 29.82688687 7.40315815 39.91719332 7.25390625 50.1015625 C-2.5333927 46.96129295 -7.99567936 41.54609091 -13.3359375 32.84765625 C-17.16492569 25.39120557 -17.52173741 18.36854936 -16.74609375 10.1015625 C-14.82049633 5.63417648 -12.22044981 3.07116155 -7.88256836 0.77197266 C-5.17580044 -0.07739138 -2.83130845 -0.05473161 0 0 Z "
          fill="#FAE0BE" transform="translate(144.74609375,263.8984375)"/>
    <path d="M0 0 C1.91498777 -0.05933128 3.83050872 -0.10161378 5.74609375 -0.13671875 C6.8127124 -0.16209717 7.87933105 -0.18747559 8.97827148 -0.21362305 C13.35136223 0.09553542 16.12335917 1.75476452 19 5 C23.12140814 10.70581741 22.68374805 16.2091387 22 23 C19.57543891 33.99711635 13.50404827 41.90149666 4.11328125 47.90625 C2.06642651 48.96562029 0.25260965 49.55252901 -2 50 C-2.35456429 33.25668637 -1.2571224 16.68361914 0 0 Z "
          fill="#F9CEA1" transform="translate(362,264)"/>
    <path d="M0 0 C4.10794752 0.58684965 5.0034796 1.27689542 7.5 4.5 C8.01757812 7.28979492 8.01757812 7.28979492 8.03125 10.48046875 C8.03898437 12.2274707 8.03898437 12.2274707 8.046875 14.00976562 C8.03140625 15.22341797 8.0159375 16.43707031 8 17.6875 C8.01546875 18.88181641 8.0309375 20.07613281 8.046875 21.30664062 C8.01204614 29.21714502 7.34144024 36.28559897 1.82275391 42.34008789 C-3.03810818 46.9026797 -8.42004691 49.5781652 -15.125 50 C-18.65142308 49.86738238 -19.50553571 49.49615889 -22.5625 47.375 C-24.84404561 43.98948071 -25.2652998 42.49656562 -24.5 38.5 C-23.125 36.25 -23.125 36.25 -20.5 34.5 C-17.91878822 33.87967652 -15.37393988 33.43736001 -12.7421875 33.08984375 C-10.13319039 32.66863285 -10.13319039 32.66863285 -8.5 29.5 C-8.19697122 26.85304785 -8.19697122 26.85304785 -8.2265625 23.87890625 C-8.2059375 22.77869141 -8.1853125 21.67847656 -8.1640625 20.54492188 C-8.13806548 18.22728766 -8.11980947 15.90955341 -8.109375 13.59179688 C-8.08617187 12.49029297 -8.06296875 11.38878906 -8.0390625 10.25390625 C-8.02673584 8.74292358 -8.02673584 8.74292358 -8.01416016 7.20141602 C-7.09492231 2.37170721 -4.73029574 0.67575653 0 0 Z "
          fill="#040303" transform="translate(264.5,269.5)"/>
    <path d="M0 0 C3.9375 0.5 3.9375 0.5 5.65933228 1.73181152 C7.32902081 4.04162109 7.31776033 5.45348305 7.32568359 8.29101562 C7.33514008 9.2621228 7.34459656 10.23322998 7.3543396 11.23376465 C7.34826691 12.28068481 7.34219421 13.32760498 7.3359375 14.40625 C7.34024277 16.02061951 7.34024277 16.02061951 7.34463501 17.66760254 C7.34667725 19.94393439 7.34113629 22.22028372 7.32861328 24.49658203 C7.31256255 27.98640073 7.32845728 31.47506119 7.34765625 34.96484375 C7.34567385 37.17448173 7.34183024 39.38411899 7.3359375 41.59375 C7.34504654 43.16413025 7.34504654 43.16413025 7.3543396 44.76623535 C7.34488312 45.73734253 7.33542664 46.70844971 7.32568359 47.70898438 C7.32329681 48.56375366 7.32091003 49.41852295 7.31845093 50.29919434 C6.84842954 53.01457226 6.12862116 53.86804053 3.9375 55.5 C0.5 56.4375 0.5 56.4375 -3.0625 56.5 C-5.47531883 54.65863826 -6.71400913 53.19698174 -8.0625 50.5 C-8.17186274 49.07678761 -8.22148603 47.64872989 -8.23950195 46.22143555 C-8.25233719 45.33679123 -8.26517242 44.45214691 -8.27839661 43.54069519 C-8.28578354 42.58238297 -8.29317047 41.62407074 -8.30078125 40.63671875 C-8.308853 39.65258499 -8.31692474 38.66845123 -8.32524109 37.65449524 C-8.33908665 35.56891647 -8.34980668 33.483315 -8.35766602 31.39770508 C-8.37487493 28.21066245 -8.41875667 25.02465809 -8.46289062 21.83789062 C-8.47301779 19.81250764 -8.48153382 17.78711582 -8.48828125 15.76171875 C-8.50578934 14.80947922 -8.52329742 13.85723969 -8.54133606 12.87614441 C-8.52717966 8.54971888 -8.46344469 6.15527142 -6.16308594 2.39575195 C-3.8700893 0.3263518 -3.03553532 -0.14037158 0 0 Z "
          fill="#020604" transform="translate(401.0625,41.5)"/>
    <path d="M0 0 C2.375 1.5625 2.375 1.5625 4 4 C4.56783945 7.97487617 4.62340519 10.06489221 2.375 13.4375 C-0.71685231 15.47161336 -2.36367425 15.60605429 -6 15 C-8.375 13.4375 -8.375 13.4375 -10 11 C-10.56783945 7.02512383 -10.62340519 4.93510779 -8.375 1.5625 C-5.28314769 -0.47161336 -3.63632575 -0.60605429 0 0 Z "
          fill="#020604" transform="translate(404,111)"/>
    <path d="M0 0 C2.375 1.5625 2.375 1.5625 4 4 C4.56783945 7.97487617 4.62340519 10.06489221 2.375 13.4375 C-0.71685231 15.47161336 -2.36367425 15.60605429 -6 15 C-8.375 13.4375 -8.375 13.4375 -10 11 C-10.56783945 7.02512383 -10.62340519 4.93510779 -8.375 1.5625 C-5.28314769 -0.47161336 -3.63632575 -0.60605429 0 0 Z "
          fill="#070501" transform="translate(114,111)"/>
    <path d="M0 0 C27.72 0 55.44 0 84 0 C81.96241539 8.15033843 75.58706072 14.06637153 69 19 C67.68453904 19.70127361 66.3554389 20.37951019 65 21 C66.5718509 17.14182051 69.04458102 14.889743 72 12 C76.47581759 7.33961813 76.47581759 7.33961813 80 2 C53.6 1.67 27.2 1.34 0 1 C0 0.67 0 0.34 0 0 Z "
          fill="#9A2C2C" transform="translate(214,346)"/>
    <path d="M0 0 C0.99 0 1.98 0 3 0 C-0.1012288 9.14046383 -7.75345718 15.50188574 -16 20 C-14.23172794 16.19141403 -12.01611981 13.94909492 -9 11 C-5.78131304 7.46221908 -2.65571856 3.98357783 0 0 Z "
          fill="#CB2E2E" transform="translate(295,347)"/>
</svg>
